<svg height="1150" width="720" xmlns="http://www.w3.org/2000/svg">
<rect height="1150" fill="#555" width="720"></rect>
<text fill="#7f7" font-family="Courier New" font-size="12" xml:space="preserve">
<tspan x="10" y="26">8 megabytes installed</tspan>
<tspan x="10" y="42"></tspan>
<tspan x="10" y="58">node_modules</tspan>
<tspan x="10" y="74">└─┬ instagram-realtime@0.0.4 </tspan>
<tspan x="10" y="90">  ├─┬ connect@3.6.0 </tspan>
<tspan x="10" y="106">  │ ├─┬ debug@2.6.1 </tspan>
<tspan x="10" y="122">  │ │ └── ms@0.7.2 </tspan>
<tspan x="10" y="138">  │ ├─┬ finalhandler@1.0.0 </tspan>
<tspan x="10" y="154">  │ │ ├── encodeurl@1.0.1 </tspan>
<tspan x="10" y="170">  │ │ ├── escape-html@1.0.3 </tspan>
<tspan x="10" y="186">  │ │ ├─┬ on-finished@2.3.0 </tspan>
<tspan x="10" y="202">  │ │ │ └── ee-first@1.1.1 </tspan>
<tspan x="10" y="218">  │ │ ├── statuses@1.3.1 </tspan>
<tspan x="10" y="234">  │ │ └── unpipe@1.0.0 </tspan>
<tspan x="10" y="250">  │ ├── parseurl@1.3.1 </tspan>
<tspan x="10" y="266">  │ └── utils-merge@1.0.0 </tspan>
<tspan x="10" y="282">  └─┬ request@2.81.0 </tspan>
<tspan x="10" y="298">    ├── aws-sign2@0.6.0 </tspan>
<tspan x="10" y="314">    ├── aws4@1.6.0 </tspan>
<tspan x="10" y="330">    ├── caseless@0.12.0 </tspan>
<tspan x="10" y="346">    ├─┬ combined-stream@1.0.5 </tspan>
<tspan x="10" y="362">    │ └── delayed-stream@1.0.0 </tspan>
<tspan x="10" y="378">    ├── extend@3.0.0 </tspan>
<tspan x="10" y="394">    ├── forever-agent@0.6.1 </tspan>
<tspan x="10" y="410">    ├─┬ form-data@2.1.4 </tspan>
<tspan x="10" y="426">    │ └── asynckit@0.4.0 </tspan>
<tspan x="10" y="442">    ├─┬ har-validator@4.2.1 </tspan>
<tspan x="10" y="458">    │ ├─┬ ajv@4.11.7 </tspan>
<tspan x="10" y="474">    │ │ ├── co@4.6.0 </tspan>
<tspan x="10" y="490">    │ │ └─┬ json-stable-stringify@1.0.1 </tspan>
<tspan x="10" y="506">    │ │   └── jsonify@0.0.0 </tspan>
<tspan x="10" y="522">    │ └── har-schema@1.0.5 </tspan>
<tspan x="10" y="538">    ├─┬ hawk@3.1.3 </tspan>
<tspan x="10" y="554">    │ ├── boom@2.10.1 </tspan>
<tspan x="10" y="570">    │ ├── cryptiles@2.0.5 </tspan>
<tspan x="10" y="586">    │ ├── hoek@2.16.3 </tspan>
<tspan x="10" y="602">    │ └── sntp@1.0.9 </tspan>
<tspan x="10" y="618">    ├─┬ http-signature@1.1.1 </tspan>
<tspan x="10" y="634">    │ ├── assert-plus@0.2.0 </tspan>
<tspan x="10" y="650">    │ ├─┬ jsprim@1.4.0 </tspan>
<tspan x="10" y="666">    │ │ ├── assert-plus@1.0.0 </tspan>
<tspan x="10" y="682">    │ │ ├── extsprintf@1.0.2 </tspan>
<tspan x="10" y="698">    │ │ ├── json-schema@0.2.3 </tspan>
<tspan x="10" y="714">    │ │ └── verror@1.3.6 </tspan>
<tspan x="10" y="730">    │ └─┬ sshpk@1.13.0 </tspan>
<tspan x="10" y="746">    │   ├── asn1@0.2.3 </tspan>
<tspan x="10" y="762">    │   ├── assert-plus@1.0.0 </tspan>
<tspan x="10" y="778">    │   ├── bcrypt-pbkdf@1.0.1 </tspan>
<tspan x="10" y="794">    │   ├─┬ dashdash@1.14.1 </tspan>
<tspan x="10" y="810">    │   │ └── assert-plus@1.0.0 </tspan>
<tspan x="10" y="826">    │   ├── ecc-jsbn@0.1.1 </tspan>
<tspan x="10" y="842">    │   ├─┬ getpass@0.1.6 </tspan>
<tspan x="10" y="858">    │   │ └── assert-plus@1.0.0 </tspan>
<tspan x="10" y="874">    │   ├── jodid25519@1.0.2 </tspan>
<tspan x="10" y="890">    │   ├── jsbn@0.1.1 </tspan>
<tspan x="10" y="906">    │   └── tweetnacl@0.14.5 </tspan>
<tspan x="10" y="922">    ├── is-typedarray@1.0.0 </tspan>
<tspan x="10" y="938">    ├── isstream@0.1.2 </tspan>
<tspan x="10" y="954">    ├── json-stringify-safe@5.0.1 </tspan>
<tspan x="10" y="970">    ├─┬ mime-types@2.1.15 </tspan>
<tspan x="10" y="986">    │ └── mime-db@1.27.0 </tspan>
<tspan x="10" y="1002">    ├── oauth-sign@0.8.2 </tspan>
<tspan x="10" y="1018">    ├── performance-now@0.2.0 </tspan>
<tspan x="10" y="1034">    ├── qs@6.4.0 </tspan>
<tspan x="10" y="1050">    ├── safe-buffer@5.0.1 </tspan>
<tspan x="10" y="1066">    ├── stringstream@0.0.5 </tspan>
<tspan x="10" y="1082">    ├─┬ tough-cookie@2.3.2 </tspan>
<tspan x="10" y="1098">    │ └── punycode@1.4.1 </tspan>
<tspan x="10" y="1114">    ├── tunnel-agent@0.6.0 </tspan>
<tspan x="10" y="1130">    └── uuid@3.0.1</tspan>
</text>
</svg>
